<svg xmlns="http://www.w3.org/2000/svg" viewBox="0 0 257 242"><defs><style>.cls-1{fill:#383838;}.cls-2{fill:#fff;}.cls-3{fill:none;stroke:#fff;stroke-miterlimit:10;stroke-width:2px;}</style></defs><title>icon</title><g id="Layer_2" data-name="Layer 2"><g id="Layer_7" data-name="Layer 7"><rect class="cls-1" width="257" height="242"/></g><g id="Outer_Circle" data-name="Outer Circle"><g id="OuterRing"><path class="cls-2" d="M130,16A100,100,0,1,1,30,116,100.11,100.11,0,0,1,130,16m0-2A102,102,0,1,0,232,116,102,102,0,0,0,130,14Z"/></g></g><g id="Inner_Circle" data-name="Inner Circle"><g id="Inner_Ring" data-name="Inner Ring"><path class="cls-2" d="M130,26.12A89.88,89.88,0,1,1,40.12,116,90,90,0,0,1,130,26.12m0-2A91.88,91.88,0,1,0,221.88,116,91.88,91.88,0,0,0,130,24.12Z"/></g></g><g id="Middle_Dot" data-name="Middle Dot"><g id="Middle_Dot-2" data-name="Middle Dot"><path class="cls-2" d="M129.74,113.86a2.43,2.43,0,1,1-2.43,2.43,2.44,2.44,0,0,1,2.43-2.43m0-2a4.43,4.43,0,1,0,4.43,4.43,4.43,4.43,0,0,0-4.43-4.43Z"/></g></g><g id="Compass_Nothes" data-name="Compass Nothes"><line class="cls-3" x1="130" y1="24.65" x2="130" y2="36.37"/><line class="cls-3" x1="98.65" y1="30.09" x2="102.66" y2="41.1"/><line class="cls-3" x1="71.05" y1="45.92" x2="78.58" y2="54.89"/><line class="cls-3" x1="50.53" y1="70.23" x2="60.68" y2="76.09"/><line class="cls-3" x1="39.56" y1="100.1" x2="51.1" y2="102.13"/><line class="cls-3" x1="39.47" y1="131.91" x2="51.01" y2="129.88"/><line class="cls-3" x1="50.26" y1="161.84" x2="60.41" y2="155.98"/><line class="cls-3" x1="70.64" y1="186.28" x2="78.17" y2="177.3"/><line class="cls-3" x1="98.15" y1="202.26" x2="102.16" y2="191.25"/><line class="cls-3" x1="129.47" y1="207.88" x2="129.47" y2="196.16"/><line class="cls-3" x1="160.82" y1="202.45" x2="156.81" y2="191.43"/><line class="cls-3" x1="188.42" y1="186.62" x2="180.89" y2="177.64"/><line class="cls-3" x1="208.94" y1="162.3" x2="198.79" y2="156.44"/><line class="cls-3" x1="219.91" y1="132.44" x2="208.37" y2="130.4"/><line class="cls-3" x1="220" y1="100.62" x2="208.46" y2="102.65"/><line class="cls-3" x1="209.21" y1="70.69" x2="199.06" y2="76.55"/><line class="cls-3" x1="188.83" y1="46.26" x2="181.29" y2="55.23"/><line class="cls-3" x1="161.32" y1="30.27" x2="157.31" y2="41.28"/></g><g id="Diamond"><path class="cls-3" d="M166,137.7l-45.81-15.93L93.49,94.66,134.81,106Z"/></g></g></svg>